<!DOCTYPE svg PUBLIC "-//W3C//DTD SVG 20010904//EN" "http://www.w3.org/TR/2001/REC-SVG-20010904/DTD/svg10.dtd">
<svg version="1.0" xmlns="http://www.w3.org/2000/svg" width="288px" height="289px" viewBox="0 0 2880 2890" preserveAspectRatio="xMidYMid meet">
<g id="layer101" fill="#ff67b8" stroke="none">
 <path d="M0 1445 l0 -1445 1440 0 1440 0 0 1445 0 1445 -1440 0 -1440 0 0 -1445z"/>
 </g>
<g id="layer102" fill="#fff9fc" stroke="none">
 <path d="M834 2078 l-528 -423 -52 -300 c-29 -165 -49 -303 -46 -306 18 -17 831 -648 849 -660 20 -12 38 -7 178 51 87 35 162 63 168 63 7 0 82 -28 167 -61 86 -34 163 -62 171 -62 8 0 30 13 49 29 19 15 211 166 425 336 215 169 391 310 392 314 2 3 -21 138 -50 299 -47 259 -56 296 -78 317 -35 33 -1030 816 -1046 822 -10 4 -13 -12 -13 -75 0 -44 -3 -87 -6 -95 -5 -15 52 -77 72 -77 6 0 20 -10 32 -23 12 -12 67 -59 122 -102 56 -44 146 -117 201 -163 55 -45 154 -126 220 -178 65 -53 119 -102 119 -110 0 -8 -3 -14 -6 -14 -3 0 -87 66 -186 148 -99 81 -217 175 -262 210 -44 35 -127 101 -184 148 -57 48 -105 84 -108 81 -3 -3 -8 -60 -11 -128 l-5 -124 68 -50 c38 -27 76 -55 84 -62 34 -28 167 -131 382 -295 139 -106 227 -180 227 -190 1 -10 -4 -18 -9 -18 -6 0 -119 87 -253 193 -133 106 -278 221 -322 255 -44 34 -99 78 -123 98 -23 20 -44 35 -46 33 -2 -2 -7 -56 -11 -120 l-7 -116 39 -36 c21 -20 41 -37 46 -37 4 0 40 -28 80 -63 39 -35 189 -159 332 -276 143 -118 261 -217 263 -222 2 -5 0 -15 -5 -24 -7 -12 -68 36 -302 237 -161 139 -307 263 -324 276 -18 13 -49 39 -69 59 -21 20 -39 35 -42 32 -2 -2 -5 -58 -7 -124 l-4 -119 290 -249 c160 -137 307 -263 328 -281 l39 -32 -33 -120 c-17 -65 -35 -122 -38 -125 -3 -4 -63 -10 -132 -14 l-127 -6 -168 126 c-110 83 -173 124 -181 118 -6 -4 -78 -59 -159 -121 l-146 -112 -138 0 -137 0 -35 123 c-27 91 -33 125 -25 136 6 7 155 137 330 289 l319 276 -7 115 c-4 64 -9 118 -11 120 -3 4 -195 -160 -538 -457 -143 -125 -190 -161 -197 -151 -5 8 -9 17 -9 21 0 6 305 265 644 545 119 99 116 95 116 155 0 78 -11 178 -20 178 -5 0 -50 -34 -102 -76 -51 -42 -111 -91 -133 -109 -209 -170 -496 -395 -505 -395 -35 0 11 45 173 171 100 78 199 156 219 173 20 17 47 39 60 48 13 10 85 66 162 124 l139 107 -7 81 c-3 45 -6 101 -6 125 0 33 -3 42 -14 38 -13 -5 -530 -426 -684 -556 -49 -41 -54 -43 -50 -21 2 17 64 74 223 203 121 98 267 217 324 265 57 48 114 94 126 102 77 52 85 62 85 109 0 65 -11 151 -20 151 -4 0 -245 -190 -536 -422z"/>
 </g>

</svg>